<?xml version="1.0" encoding="UTF-8" standalone="no"?>
<svg
   width="264.41"
   height="225.14941"
   viewBox="0 0 264.41 225.14941"
   version="1.1"
   xml:space="preserve"
   style="clip-rule:evenodd;fill-rule:evenodd;stroke-linejoin:round;stroke-miterlimit:2"
   id="svg8"
   sodipodi:docname="LinkedIn_Logo.svg"
   inkscape:version="1.1.1 (3bf5ae0d25, 2021-09-20)"
   xmlns:inkscape="http://www.inkscape.org/namespaces/inkscape"
   xmlns:sodipodi="http://sodipodi.sourceforge.net/DTD/sodipodi-0.dtd"
   xmlns="http://www.w3.org/2000/svg"
   xmlns:svg="http://www.w3.org/2000/svg"><defs
   id="defs12" /><sodipodi:namedview
   id="namedview10"
   pagecolor="#ffffff"
   bordercolor="#666666"
   borderopacity="1.0"
   inkscape:pageshadow="2"
   inkscape:pageopacity="0.0"
   inkscape:pagecheckerboard="0"
   showgrid="false"
   inkscape:zoom="25.125541"
   inkscape:cx="257.20839"
   inkscape:cy="229.10949"
   inkscape:window-width="3840"
   inkscape:window-height="2054"
   inkscape:window-x="2869"
   inkscape:window-y="-11"
   inkscape:window-maximized="1"
   inkscape:current-layer="g6" />
    <g
   transform="translate(-797.13,-287.42558)"
   id="g6">
        <path
   d="m 1048.57,498.296 h 0.04 c 2.27,0 4.14,-1.869 4.14,-4.14 0,-0.08 0,-0.159 -0.01,-0.239 0,-3.105 -1.87,-4.589 -5.72,-4.589 h -6.21 v 16.26 h 2.34 V 498.5 h 2.87 l 0.06,0.086 4.46,7.002 h 2.5 l -4.79,-7.247 z m -2.71,-1.629 h -2.71 v -5.496 h 3.44 c 1.77,0 3.79,0.289 3.79,2.612 0,2.671 -2.04,2.884 -4.53,2.884"
   style="fill:#ffffff;fill-rule:nonzero"
   id="path2"
   sodipodi:nodetypes="csscscccccccccccccssc" />
        <path
   d="m 987.626,477.92 h -33.127 v -51.878 c 0,-12.371 -0.221,-28.296 -17.229,-28.296 -17.254,0 -19.894,13.478 -19.894,27.395 v 52.775 H 884.25 V 371.234 h 31.801 v 14.579 h 0.446 c 6.475,-11.071 18.559,-17.708 31.377,-17.232 33.575,0 39.766,22.084 39.766,50.815 z M 846.872,356.651 h -0.004 c -10.546,0 -19.224,-8.677 -19.224,-19.223 0,-10.546 8.678,-19.224 19.224,-19.224 10.545,0 19.222,8.676 19.224,19.22 v 0.004 c 0,10.544 -8.676,19.222 -19.22,19.223 M 863.435,477.92 H 830.274 V 371.234 h 33.161 z M 1004.14,287.441 H 813.627 c -8.943,-0.101 -16.388,7.171 -16.497,16.114 v 191.304 c 0.105,8.948 7.549,16.228 16.497,16.132 h 190.513 c 8.97,0.113 16.44,-7.166 16.56,-16.132 V 303.542 c -0.12,-8.962 -7.6,-16.233 -16.56,-16.115 m 42.01,194.658 c -8.31,0.08 -15.1,6.936 -15.1,15.244 0,8.364 6.88,15.246 15.24,15.246 8.37,0 15.25,-6.882 15.25,-15.246 0,-8.308 -6.79,-15.164 -15.1,-15.244 h -0.29 m 0,28.744 c -0.08,10e-4 -0.15,0.002 -0.23,0.002 -7.33,0 -13.36,-6.034 -13.36,-13.368 0,-7.333 6.03,-13.368 13.36,-13.368 7.25,0 13.25,5.897 13.37,13.145 v 0.225 c 0.15,7.173 -5.62,13.202 -12.79,13.357 h -0.35"
   style="fill:#ffffff;fill-rule:nonzero"
   id="path4"
   sodipodi:nodetypes="ccsssccccccccccsssssccccccccccccccccssscccssscccc" />
    </g>
</svg>
